<?xml version="1.0" standalone="no"?>
<!DOCTYPE svg PUBLIC "-//W3C//DTD SVG 20010904//EN"
 "http://www.w3.org/TR/2001/REC-SVG-20010904/DTD/svg10.dtd">
<svg version="1.0" xmlns="http://www.w3.org/2000/svg"
 width="100px" height="78px" viewBox="0 0 1020.000000 680.000000"
 preserveAspectRatio="xMidYMid meet">

<g transform="translate(0.000000,680.000000) scale(0.100000,-0.100000)"
fill="#000000" stroke="none">
<path d="M5275 6279 c-22 -4 -78 -13 -125 -18 -92 -12 -162 -24 -225 -40 -22
-5 -68 -15 -102 -23 -35 -7 -63 -16 -63 -20 0 -5 -9 -8 -21 -8 -19 0 -100 -22
-144 -40 -53 -21 -164 -45 -290 -63 -98 -13 -475 -13 -565 1 -110 17 -197 36
-206 45 -4 4 -19 7 -34 7 -14 0 -30 4 -36 8 -5 4 -36 16 -69 27 -33 10 -64 22
-69 27 -18 15 -36 8 -73 -24 -73 -65 -173 -178 -173 -195 0 -7 -4 -13 -10 -13
-5 0 -10 -7 -10 -15 0 -8 -4 -15 -8 -15 -11 0 -57 -101 -76 -169 -28 -96 -15
-271 24 -343 6 -10 10 -23 10 -29 0 -14 47 -77 85 -114 48 -46 71 -63 128 -93
28 -15 58 -33 65 -39 7 -7 20 -13 28 -13 9 0 14 -10 14 -27 0 -31 -36 -67 -97
-97 -21 -10 -46 -22 -56 -28 -41 -21 -121 -31 -264 -35 -84 -2 -153 -8 -153
-12 0 -4 9 -19 21 -32 11 -13 39 -46 62 -73 23 -27 54 -60 69 -74 15 -14 25
-28 23 -32 -4 -7 -39 -27 -102 -58 -10 -5 -32 -17 -50 -26 -17 -9 -38 -16 -47
-16 -9 0 -16 -4 -16 -9 0 -5 -12 -11 -27 -14 -16 -3 -57 -13 -93 -22 -36 -9
-82 -19 -102 -22 -22 -3 -38 -11 -38 -18 0 -7 35 -30 78 -51 80 -39 119 -74
149 -134 10 -19 21 -36 26 -38 4 -2 7 -13 7 -23 0 -11 4 -28 9 -38 9 -16 21
-104 37 -266 3 -27 9 -59 13 -70 5 -11 16 -54 26 -95 10 -41 22 -79 26 -84 5
-6 9 -20 9 -33 0 -13 5 -23 10 -23 6 0 10 -5 10 -11 0 -28 96 -206 147 -271
44 -57 225 -228 240 -228 5 0 19 -10 33 -22 14 -13 52 -36 85 -53 33 -16 62
-33 63 -37 2 -5 8 -8 14 -8 5 0 26 -7 46 -16 58 -25 74 -31 127 -49 28 -10 59
-21 70 -25 11 -5 52 -16 90 -25 39 -9 79 -21 90 -25 11 -5 36 -11 55 -14 19
-3 71 -12 115 -21 154 -30 423 -61 494 -56 15 1 1 15 -79 79 -78 64 -155 141
-147 148 7 7 78 -11 142 -36 11 -4 47 -16 80 -25 33 -10 69 -21 80 -25 11 -4
47 -16 80 -25 33 -10 68 -21 77 -26 10 -5 29 -9 43 -9 14 0 25 -4 25 -10 0 -5
10 -10 23 -10 13 0 32 -7 43 -15 10 -8 27 -15 37 -15 9 0 17 -4 17 -10 0 -5 5
-10 11 -10 22 0 119 -104 143 -154 15 -30 27 -74 28 -102 l3 -49 -210 -6
c-139 -5 -210 -10 -213 -18 -2 -6 -12 -11 -22 -11 -18 0 -88 -28 -100 -40 -3
-3 -16 -11 -30 -18 -14 -7 -40 -26 -59 -42 -18 -17 -39 -30 -45 -30 -6 1 -35
22 -63 49 -29 26 -72 56 -95 66 -24 9 -54 22 -67 29 -16 7 -136 11 -380 11
-318 0 -361 -2 -405 -18 -67 -24 -155 -73 -187 -103 -31 -29 -34 -30 -63 -1
-46 44 -72 62 -116 81 -25 10 -54 23 -65 30 -14 8 -176 12 -555 14 l-536 3
-12 -48 c-11 -44 -21 -101 -42 -228 -5 -27 -16 -88 -25 -135 -16 -80 -21 -107
-43 -240 -6 -30 -13 -72 -17 -93 l-7 -37 37 0 38 0 -7 -76 c-4 -41 -11 -86
-16 -100 -6 -14 -10 -40 -10 -59 0 -36 -12 -45 -61 -45 -22 0 -30 -5 -33 -23
-2 -12 -9 -47 -15 -77 -6 -30 -13 -71 -15 -90 -3 -19 -12 -75 -21 -125 -8 -49
-20 -115 -25 -145 -5 -30 -16 -95 -25 -145 -9 -49 -18 -109 -22 -133 l-6 -44
586 4 c452 2 589 6 599 15 6 7 19 13 27 13 26 0 171 79 171 93 0 4 7 7 15 7 8
0 15 5 15 10 0 19 20 10 57 -25 20 -19 43 -35 50 -35 7 0 13 -3 13 -7 0 -5 19
-16 43 -27 23 -10 51 -23 62 -30 15 -8 662 -12 2485 -14 1356 -1 2474 0 2486
3 17 4 23 15 27 52 4 27 14 84 23 128 8 44 19 103 24 130 5 28 16 91 25 140 9
50 20 113 25 140 5 28 16 88 24 135 8 47 18 95 22 108 6 21 4 22 -45 22 -49 0
-51 1 -51 29 0 15 5 42 11 60 10 29 14 31 59 31 47 0 47 0 53 38 9 50 36 207
47 262 26 138 42 230 46 270 3 25 8 52 11 60 4 8 12 47 19 85 6 39 15 87 19
107 l8 38 -927 0 c-760 0 -926 2 -926 13 0 7 7 37 16 66 11 37 14 86 13 165
-3 100 -1 116 18 142 18 25 33 56 63 129 19 44 34 135 39 233 l6 104 55 30
c30 16 65 36 77 44 12 8 29 14 38 14 8 0 15 4 15 8 0 4 12 13 28 19 51 22 87
48 147 108 78 78 105 120 155 240 18 43 40 135 40 167 0 28 10 45 52 89 64 67
111 141 149 234 21 52 33 131 38 255 5 117 9 142 31 185 14 28 28 52 33 53 4
2 7 10 7 17 0 13 29 74 40 85 3 3 10 19 16 36 10 29 9 33 -15 47 -14 9 -39 28
-56 43 -16 14 -50 43 -75 63 -25 20 -46 39 -48 44 -2 4 -10 7 -18 7 -8 0 -14
4 -14 8 0 5 -16 17 -35 28 -19 10 -35 21 -35 25 0 3 -16 14 -35 25 -19 10 -35
22 -35 26 0 5 -7 8 -15 8 -8 0 -15 3 -15 8 0 4 -16 16 -35 26 -19 11 -35 22
-35 26 0 4 -8 10 -17 14 -18 5 -53 26 -63 36 -3 3 -23 14 -45 25 -22 11 -42
23 -45 26 -3 3 -49 27 -102 53 l-98 47 30 54 30 54 -78 78 c-42 43 -97 94
-122 113 -25 19 -47 37 -50 40 -3 3 -30 23 -60 45 -30 22 -56 43 -58 47 -2 5
-10 8 -17 8 -8 0 -20 6 -27 13 -12 11 -39 27 -103 61 -11 6 -22 14 -25 17 -3
3 -26 14 -52 25 -27 10 -48 22 -48 27 0 4 -6 7 -13 7 -13 0 -59 19 -99 41 -10
5 -27 9 -38 9 -11 0 -20 3 -20 8 0 8 -81 31 -137 39 -18 3 -33 9 -33 13 0 4
-19 10 -42 13 -88 11 -204 28 -246 38 -51 11 -401 10 -457 -2z m500 -169 c6
-4 33 -10 60 -13 72 -9 172 -31 181 -39 4 -5 16 -8 26 -8 10 0 26 -4 36 -9 9
-5 40 -17 67 -26 28 -9 74 -28 103 -41 29 -13 57 -24 62 -24 6 0 10 -4 10 -10
0 -5 9 -10 20 -10 11 0 20 -4 20 -10 0 -5 11 -12 25 -16 14 -3 25 -10 25 -15
0 -5 4 -9 10 -9 5 0 57 -34 115 -75 58 -41 108 -75 111 -75 3 0 13 -7 22 -17
15 -15 11 -16 -63 -11 -44 4 -87 8 -95 10 -9 2 -16 -6 -18 -19 -2 -13 1 -23 7
-23 6 0 11 -8 11 -19 0 -10 7 -32 15 -47 8 -16 15 -37 15 -46 0 -10 5 -18 10
-18 6 0 10 -5 10 -12 0 -18 79 -88 100 -88 10 0 20 -3 22 -7 4 -10 98 -43 121
-43 9 0 17 -4 17 -10 0 -5 11 -10 25 -10 14 0 25 -4 25 -10 0 -5 5 -10 12 -10
12 0 178 -80 188 -90 3 -3 23 -14 45 -25 22 -11 42 -23 43 -27 2 -5 10 -8 18
-8 8 0 14 -4 14 -9 0 -5 10 -13 23 -17 12 -4 24 -10 27 -13 3 -4 42 -31 88
-61 45 -30 82 -58 82 -62 0 -4 6 -8 13 -8 7 0 24 -11 39 -25 15 -14 30 -25 33
-25 3 0 12 -5 19 -12 9 -9 10 -15 2 -23 -11 -10 -77 -32 -128 -42 -16 -3 -28
-9 -28 -14 0 -5 -22 -9 -50 -9 -27 0 -50 4 -50 9 0 5 -12 11 -27 14 -65 14
-123 32 -123 39 0 5 -8 8 -17 8 -21 1 -120 34 -130 44 -3 3 -15 6 -25 6 -10 0
-26 4 -36 9 -28 13 -118 41 -136 41 -9 0 -16 5 -16 10 0 6 -9 10 -21 10 -11 0
-29 5 -41 11 -41 22 -208 4 -208 -23 0 -4 -6 -8 -13 -8 -13 0 -74 -47 -118
-92 -26 -27 -79 -39 -79 -19 0 5 -19 11 -42 14 -24 3 -77 10 -118 17 -45 7
-132 10 -220 8 -131 -4 -151 -7 -202 -31 -31 -15 -62 -27 -67 -27 -6 0 -11 -4
-11 -10 0 -5 -7 -10 -15 -10 -8 0 -15 -4 -15 -9 0 -5 -9 -12 -20 -16 -21 -7
-110 -91 -110 -105 0 -5 -6 -15 -12 -22 -18 -18 -38 -79 -38 -111 0 -17 -5
-27 -15 -27 -8 0 -15 -4 -15 -9 0 -5 -11 -12 -25 -15 -14 -4 -25 -11 -25 -16
0 -6 -7 -10 -15 -10 -8 0 -15 -3 -15 -8 0 -4 -12 -13 -27 -20 -26 -11 -66 -42
-120 -92 -12 -11 -25 -20 -28 -20 -14 0 -260 -242 -299 -295 -11 -14 -27 -35
-35 -45 -9 -10 -27 -33 -41 -51 -14 -18 -31 -38 -37 -45 -7 -7 -13 -17 -13
-22 0 -6 -4 -12 -8 -14 -11 -4 -100 -157 -136 -233 -15 -33 -32 -67 -36 -76
-14 -28 -33 -219 -27 -281 3 -32 3 -58 0 -58 -7 0 -54 51 -70 76 -31 48 -66
134 -75 184 -14 74 -14 202 0 275 6 33 13 68 15 77 2 10 6 21 10 24 4 4 7 16
7 26 0 10 4 26 9 36 5 9 17 37 26 62 9 25 23 56 31 70 8 14 24 45 36 70 12 25
26 47 30 48 4 2 8 8 8 13 0 13 -33 11 -66 -5 -16 -7 -44 -20 -61 -27 -18 -8
-33 -17 -33 -20 0 -4 -8 -9 -17 -13 -34 -11 -76 -43 -154 -118 -27 -26 -49
-49 -49 -52 0 -3 -8 -14 -17 -24 -31 -33 -48 -56 -68 -97 -11 -22 -23 -41 -27
-43 -5 -2 -8 -9 -8 -16 0 -7 -6 -26 -13 -42 -8 -16 -18 -40 -24 -54 -10 -24
-11 -22 -23 25 -27 100 -13 374 21 409 5 6 9 18 9 28 0 10 3 18 8 18 4 0 15
20 25 45 11 25 23 45 27 45 4 0 10 8 14 18 3 9 11 26 18 37 22 33 204 215 216
215 5 0 12 4 14 8 5 12 116 92 128 92 5 0 10 4 10 9 0 5 8 11 18 15 17 5 53
26 62 36 3 3 24 14 48 24 23 11 42 22 42 25 0 4 23 15 50 26 28 11 50 23 50
27 0 4 11 8 25 8 14 0 25 4 25 9 0 4 14 12 32 17 17 5 34 16 36 23 4 12 -13
13 -99 7 -160 -10 -222 -17 -244 -26 -11 -5 -38 -11 -60 -14 -22 -3 -69 -13
-105 -21 -36 -9 -77 -19 -92 -22 -16 -3 -28 -9 -28 -13 0 -4 -20 -11 -45 -14
-24 -4 -47 -11 -50 -17 -4 -5 -15 -9 -26 -9 -10 0 -19 -4 -19 -10 0 -5 -7 -10
-15 -10 -15 0 -86 -31 -95 -41 -3 -3 -24 -14 -47 -24 -24 -11 -43 -22 -43 -27
0 -4 -5 -8 -11 -8 -6 0 -25 -11 -43 -25 -18 -14 -38 -25 -45 -25 -7 0 -9 -4
-6 -10 3 -5 0 -10 -8 -10 -17 0 -177 -154 -177 -170 0 -5 -3 -10 -7 -10 -5 0
-19 -16 -32 -35 -13 -19 -32 -44 -42 -56 -11 -12 -19 -28 -19 -36 0 -7 -4 -13
-10 -13 -5 0 -10 -6 -10 -14 0 -8 -3 -16 -7 -18 -12 -5 -43 -64 -43 -82 0 -9
-4 -16 -10 -16 -5 0 -10 -9 -10 -20 0 -11 -4 -20 -9 -20 -5 0 -12 -18 -16 -40
-4 -22 -11 -42 -16 -46 -5 -3 -9 -15 -9 -28 0 -12 -4 -26 -9 -31 -14 -16 -34
-161 -41 -295 -3 -69 -7 -120 -8 -114 -1 5 -10 19 -19 30 -34 36 -73 93 -73
103 0 6 -4 11 -9 11 -5 0 -13 10 -17 23 -4 12 -10 24 -13 27 -10 8 -61 114
-61 128 0 6 -4 12 -10 12 -5 0 -10 6 -10 14 0 15 -27 108 -40 141 -5 11 -11
36 -14 55 -15 112 -31 190 -38 190 -4 0 -8 16 -8 35 0 19 -4 35 -9 35 -5 0
-12 15 -15 34 -4 19 -12 36 -18 38 -17 6 0 28 23 28 10 0 19 3 19 8 0 4 21 16
48 26 26 11 49 22 52 25 3 4 22 15 43 26 21 11 47 28 57 38 11 9 22 17 25 17
16 0 192 157 184 164 -14 12 -51 26 -69 26 -18 0 -19 2 -8 13 7 7 27 19 45 26
42 17 183 156 183 180 0 11 5 23 10 26 6 3 10 26 10 49 l0 43 160 8 c88 4 160
11 160 16 0 5 14 9 32 9 34 0 98 20 98 30 0 4 -82 10 -182 13 -102 4 -186 11
-192 17 -5 5 -25 10 -42 10 -18 0 -35 4 -38 9 -4 5 -24 12 -46 16 -22 4 -40
11 -40 16 0 5 -6 9 -14 9 -42 0 -205 125 -206 157 0 6 -4 13 -10 15 -17 6 -28
120 -18 193 5 38 14 72 19 73 5 2 9 9 9 15 0 14 49 113 70 141 8 11 27 32 41
47 24 26 27 27 75 15 28 -6 62 -19 77 -28 15 -10 45 -18 70 -18 23 0 48 -5 54
-11 18 -18 478 5 511 24 25 17 10 -7 -32 -49 -25 -24 -50 -59 -57 -79 -7 -19
-17 -35 -21 -35 -4 0 -8 -38 -8 -85 0 -47 4 -85 9 -85 5 0 12 -16 15 -35 4
-19 11 -35 16 -35 6 0 10 -5 10 -11 0 -6 6 -16 13 -24 6 -7 21 -25 32 -41 45
-61 115 -114 115 -86 0 5 -10 28 -22 53 -18 36 -22 62 -23 140 0 87 3 101 30
153 28 54 106 145 137 160 18 8 52 30 58 37 3 3 30 19 60 35 30 16 57 31 60
34 3 3 32 14 65 24 33 11 65 23 70 26 6 4 46 15 90 25 44 10 84 22 89 27 6 4
23 8 38 8 16 0 36 4 46 10 19 10 118 29 197 36 28 3 59 9 70 14 11 6 63 11
115 14 136 5 463 -4 475 -14z m360 -1229 c103 -17 224 -44 270 -61 62 -22 122
-40 138 -40 9 0 17 -4 17 -10 0 -5 8 -10 19 -10 16 0 48 -11 116 -39 11 -5 40
-14 65 -21 25 -7 65 -19 89 -26 25 -8 55 -14 67 -14 13 0 25 -4 28 -9 3 -5 23
-11 43 -14 125 -19 128 -20 125 -52 -1 -17 -7 -40 -12 -52 -6 -13 -15 -35 -21
-50 -6 -16 -15 -35 -20 -43 -5 -8 -12 -23 -15 -32 -4 -10 -10 -18 -14 -18 -5
0 -12 -9 -15 -20 -8 -27 -118 -136 -144 -145 -12 -3 -21 -11 -21 -16 0 -5 -7
-9 -15 -9 -8 0 -15 -4 -15 -10 0 -5 -4 -10 -10 -10 -5 0 -33 -11 -62 -24 -60
-27 -152 -56 -177 -56 -9 0 -22 -5 -29 -12 -15 -15 -362 -15 -371 0 -3 6 -27
13 -53 17 -27 4 -48 11 -48 16 0 5 -7 9 -15 9 -17 0 -98 48 -103 61 -2 5 -8 9
-13 9 -8 0 -20 9 -73 55 -38 33 -81 45 -156 45 -78 0 -111 -10 -163 -50 -70
-54 -146 -160 -214 -300 -9 -19 -20 -37 -23 -40 -3 -3 -14 -25 -25 -50 -11
-25 -22 -47 -26 -50 -4 -3 -10 -20 -14 -37 -3 -18 -11 -33 -16 -33 -5 0 -9 -7
-9 -15 0 -8 -4 -23 -9 -33 -5 -9 -17 -37 -26 -62 -9 -25 -21 -53 -26 -62 -5
-10 -9 -28 -9 -41 0 -13 -4 -27 -9 -32 -26 -26 -54 -332 -33 -358 5 -7 12 -24
16 -39 7 -32 107 -138 130 -138 9 0 16 -4 16 -8 0 -10 48 -28 116 -43 74 -17
211 -22 284 -10 36 5 99 15 140 21 41 5 98 15 125 20 28 6 109 18 180 26 107
13 145 13 213 4 45 -7 82 -16 82 -21 0 -5 11 -9 25 -9 14 0 25 -3 25 -8 0 -4
15 -16 34 -26 45 -24 86 -102 86 -162 0 -62 -44 -244 -59 -244 -4 0 -15 -15
-26 -32 -22 -39 -66 -79 -116 -107 l-35 -20 -13 52 c-22 88 -88 227 -107 227
-7 0 -18 -16 -25 -35 -7 -19 -17 -35 -21 -35 -4 0 -8 -6 -8 -14 0 -17 -32 -80
-42 -84 -5 -2 -8 -9 -8 -15 0 -7 -11 -24 -25 -39 -14 -15 -25 -30 -25 -33 0
-10 -99 -105 -110 -105 -5 0 -10 -4 -10 -8 0 -10 -115 -92 -129 -92 -5 0 -11
-3 -13 -7 -4 -10 -63 -43 -76 -43 -6 0 -7 13 0 38 23 92 27 112 33 189 4 45 4
105 0 132 -6 48 -8 50 -28 39 -12 -6 -36 -26 -54 -45 -17 -18 -35 -33 -38 -33
-4 0 -13 -6 -20 -12 -30 -27 -44 -38 -49 -38 -3 0 -29 -11 -58 -24 -91 -41
-213 -75 -225 -62 -3 3 2 36 11 73 27 114 17 206 -36 323 -33 74 -109 161
-194 224 -21 17 -41 32 -44 35 -16 19 -164 91 -185 91 -8 0 -17 5 -20 10 -3 6
-15 10 -26 10 -10 0 -19 4 -19 9 0 5 -9 12 -20 16 -33 10 -85 70 -119 138 -31
62 -33 71 -33 169 1 67 6 120 16 149 9 24 16 52 16 62 0 9 3 17 8 17 4 0 16
20 27 45 11 25 23 45 27 45 5 0 8 6 8 14 0 8 3 16 8 18 4 2 23 23 42 48 44 56
143 156 195 194 22 17 42 33 45 36 3 4 55 41 115 83 61 42 115 80 120 84 6 5
27 17 48 28 20 11 37 23 37 27 0 5 7 8 15 8 9 0 39 15 68 33 29 18 82 48 120
66 37 18 67 37 67 41 0 5 -11 20 -25 34 -14 14 -25 29 -25 34 0 5 -7 15 -15
22 -8 7 -15 23 -15 36 0 13 -4 24 -10 24 -17 0 -11 86 9 133 20 47 99 137 119
137 7 0 12 4 12 8 0 13 90 56 145 69 56 13 254 10 350 -6z m1355 -256 c15 -18
0 -183 -20 -210 -4 -5 -10 -23 -14 -40 -8 -35 -45 -114 -63 -133 -7 -7 -13
-18 -13 -23 0 -14 -58 -68 -97 -90 -39 -22 -71 -24 -110 -7 -41 18 -103 82
-103 107 0 22 16 55 38 79 6 7 12 20 12 28 0 8 3 14 8 14 4 0 12 10 18 23 17
35 49 92 54 97 7 7 31 70 37 97 6 27 40 40 128 48 39 3 74 10 80 16 13 13 31
11 45 -6z m-474 -458 c13 -60 106 -117 193 -117 l51 0 0 -34 c0 -19 -4 -37 -9
-40 -4 -3 -11 -23 -13 -44 -9 -66 -68 -172 -130 -234 -58 -58 -100 -79 -78
-39 10 20 15 271 4 271 -3 0 -32 -28 -64 -62 -51 -54 -60 -59 -66 -42 -3 10
-14 39 -24 64 l-19 45 -126 -1 c-137 -1 -135 0 -170 -69 -19 -37 -44 -70 -49
-64 -2 2 -22 30 -44 62 -37 54 -41 57 -51 38 -6 -11 -11 -29 -11 -40 0 -12 -4
-21 -10 -21 -5 0 -10 -7 -10 -16 0 -41 -138 -254 -164 -254 -3 0 -6 23 -6 51
0 54 -25 183 -40 211 -6 10 -10 24 -10 32 0 8 -13 46 -30 84 -35 83 -35 85
-12 72 50 -28 119 -40 225 -40 108 0 268 24 275 42 2 4 15 8 28 8 13 0 32 4
42 9 9 6 47 24 84 41 36 16 90 46 118 65 29 19 54 35 57 35 2 0 11 7 20 15 19
20 30 12 39 -28z m-1311 -267 c3 -5 16 -10 28 -10 28 0 106 -45 126 -72 33
-44 70 -114 71 -130 0 -10 5 -18 10 -18 6 0 10 -9 10 -20 0 -20 29 -101 39
-110 3 -3 13 -18 21 -34 8 -17 49 -65 91 -108 l75 -77 -24 -27 -25 -26 -31 63
c-26 56 -93 139 -111 139 -4 0 -13 7 -21 15 -26 25 -34 17 -34 -34 0 -28 -4
-52 -9 -55 -5 -3 -12 -21 -15 -40 -8 -40 -20 -66 -56 -116 -39 -56 -42 -59
-107 -126 -57 -59 -64 -63 -95 -57 -18 3 -34 10 -36 15 -2 4 -8 8 -13 8 -39 0
-139 115 -139 160 0 11 -4 20 -9 20 -4 0 -11 46 -14 103 -6 103 -25 207 -39
207 -5 0 -8 6 -8 14 0 7 -11 30 -25 50 -25 38 -32 70 -16 80 5 3 12 22 15 41
4 19 11 35 16 35 6 0 10 9 10 20 0 11 5 20 10 20 6 0 10 6 10 13 0 25 21 36
49 26 27 -11 131 -111 131 -128 0 -5 3 -11 8 -13 13 -6 42 -65 42 -86 0 -12 5
-24 10 -27 6 -3 10 -17 10 -30 0 -32 18 -72 54 -118 44 -58 136 -110 136 -77
0 6 -4 10 -8 10 -16 0 -61 108 -77 185 -33 160 -50 199 -117 268 -27 26 -48
50 -48 52 0 10 99 5 105 -5z m337 -610 c15 -27 27 -70 31 -109 4 -35 9 -67 12
-69 6 -7 43 36 61 71 20 37 36 34 57 -13 l19 -40 99 0 98 0 16 29 c23 45 31
45 55 -4 20 -41 40 -59 40 -35 0 6 5 10 10 10 15 0 84 66 100 95 17 31 27 25
35 -25 7 -43 -21 -190 -36 -190 -5 0 -9 -7 -9 -15 0 -18 -39 -65 -54 -65 -5 0
-24 13 -41 29 -58 56 -101 72 -212 80 -125 9 -296 -2 -378 -24 -91 -25 -179
-43 -187 -39 -3 2 6 16 20 32 71 72 123 139 139 179 10 23 21 43 26 43 4 0 7
11 7 25 0 14 5 25 10 25 6 0 10 9 10 19 0 11 5 32 10 47 10 26 11 26 24 8 7
-10 24 -39 38 -64z m178 -1 c0 -5 7 -9 15 -9 8 0 15 -3 15 -8 0 -4 16 -16 35
-26 19 -11 35 -23 35 -27 0 -4 8 -10 18 -12 9 -3 -9 -5 -40 -6 -41 -1 -58 3
-58 12 0 7 -11 29 -25 49 -29 43 -31 50 -10 42 8 -4 15 -10 15 -15z m-3278
-1066 c54 -22 114 -85 123 -129 7 -41 -5 -204 -15 -204 -4 0 -10 -24 -14 -52
-15 -127 -32 -227 -38 -234 -5 -4 -8 -28 -8 -54 0 -26 -3 -50 -7 -54 -5 -4
-14 -44 -20 -89 -30 -194 -47 -275 -62 -290 -6 -6 -11 -17 -11 -24 0 -16 -91
-103 -107 -103 -7 0 -13 -4 -13 -10 0 -5 -8 -10 -18 -10 -10 0 -24 -6 -30 -12
-10 -10 -114 -14 -434 -16 l-420 -3 6 33 c4 18 12 69 19 113 7 44 16 86 20 93
5 6 23 12 42 12 19 0 36 4 40 9 3 6 12 52 21 103 8 51 19 116 24 143 5 28 16
93 25 145 18 103 29 164 44 250 5 30 13 76 17 103 l7 47 -32 0 c-41 0 -46 15
-31 92 7 35 14 79 17 98 2 19 6 41 8 48 3 9 93 12 404 12 354 0 406 -2 443
-17z m1218 0 c50 -19 76 -42 104 -93 24 -43 25 -131 2 -242 -9 -42 -16 -95
-16 -118 0 -22 -4 -40 -9 -40 -5 0 -11 -21 -14 -47 -6 -46 -28 -186 -47 -288
-5 -27 -14 -79 -19 -115 -16 -98 -32 -151 -59 -195 -31 -49 -51 -67 -122 -108
l-55 -32 -300 -3 c-165 -2 -319 -1 -342 3 -48 7 -109 57 -137 112 -18 36 -21
125 -5 192 5 23 14 71 20 105 14 87 25 147 44 256 9 52 21 118 25 145 5 28 16
93 25 145 9 52 19 110 22 128 3 17 9 32 14 32 5 0 9 6 9 13 0 8 11 27 25 43
14 16 25 32 25 37 0 4 5 7 10 7 6 0 18 6 26 13 8 6 20 17 27 22 13 11 52 30
77 38 8 3 152 6 320 6 265 1 310 -1 350 -16z m872 -5 c-3 -13 -8 -25 -11 -28
-4 -3 -15 -25 -25 -50 -10 -25 -22 -53 -27 -63 -9 -16 -5 -17 43 -12 29 4 62
10 73 15 11 5 38 11 60 14 106 14 204 32 211 39 4 4 20 7 35 7 15 0 31 5 34
10 9 14 54 12 69 -2 23 -24 26 -49 11 -91 -8 -23 -15 -52 -15 -65 0 -12 -4
-30 -9 -40 -13 -26 -31 -86 -31 -105 0 -11 8 -17 21 -17 19 0 20 -4 16 -47 -3
-27 -10 -70 -15 -98 -6 -27 -15 -88 -22 -135 -7 -47 -16 -93 -21 -102 -5 -10
-9 -33 -9 -52 0 -19 -4 -45 -9 -58 -5 -13 -12 -51 -16 -85 -6 -54 -5 -63 9
-63 9 0 16 -4 16 -10 0 -5 7 -10 15 -10 13 0 14 -12 9 -72 -4 -40 -11 -74 -16
-76 -4 -2 -8 -19 -8 -37 0 -21 -6 -35 -16 -39 -9 -3 -87 -6 -175 -6 l-159 0 1
33 c0 17 5 57 10 87 5 30 14 78 18 105 5 28 17 93 26 145 9 52 19 110 22 127
l5 33 -221 -2 c-140 -1 -225 -6 -230 -13 -5 -5 -11 -32 -14 -60 -3 -27 -13
-88 -22 -135 -8 -47 -18 -111 -22 -143 -3 -31 -9 -60 -14 -63 -5 -3 -9 -23 -9
-44 0 -67 -9 -70 -201 -70 -140 0 -169 2 -169 14 0 8 4 17 9 20 4 3 11 32 14
65 4 32 12 79 19 105 11 42 15 46 44 46 29 0 32 4 43 43 6 23 16 71 22 107 22
140 28 178 44 265 9 50 21 113 25 140 48 273 59 321 85 353 41 52 110 112 128
112 7 0 17 4 23 9 16 16 45 19 191 20 l141 1 -6 -22z m1965 -15 c-21 -153 -31
-193 -48 -193 -10 0 -21 -4 -24 -10 -3 -5 -15 -10 -26 -10 -10 0 -19 -3 -19
-7 -1 -5 -5 -28 -11 -53 -5 -25 -14 -72 -19 -105 -10 -69 -25 -150 -39 -215
-6 -25 -10 -63 -11 -86 0 -22 -4 -44 -9 -50 -5 -5 -12 -29 -14 -54 -3 -25 -12
-87 -20 -137 -13 -88 -12 -93 5 -93 10 0 18 -4 18 -10 0 -5 7 -10 15 -10 13 0
14 -12 9 -72 -4 -40 -10 -75 -15 -78 -4 -3 -9 -21 -11 -40 l-3 -35 -225 0
-224 0 -11 42 c-5 23 -13 45 -17 49 -5 4 -8 18 -8 31 0 13 -4 31 -9 41 -6 9
-17 44 -26 77 -10 33 -21 69 -25 80 -4 11 -16 47 -25 80 -10 33 -21 69 -25 80
-5 11 -16 47 -25 80 -9 33 -21 70 -26 83 -5 13 -9 32 -9 42 0 11 -4 20 -10 20
-5 0 -10 8 -10 17 0 40 -13 -3 -26 -89 -8 -51 -19 -115 -24 -143 -5 -27 -14
-79 -20 -114 -5 -35 -13 -75 -16 -90 -3 -14 -8 -50 -11 -79 -3 -29 -9 -55 -14
-58 -5 -3 -9 -23 -9 -44 0 -44 -15 -91 -33 -102 -7 -4 -85 -8 -174 -8 l-163 0
0 40 c0 37 7 76 31 173 9 35 12 37 48 37 38 0 39 1 45 43 3 23 13 80 21 127 9
47 20 110 25 140 5 30 16 96 25 145 22 120 32 175 47 270 12 72 16 81 43 95
16 8 35 21 43 28 7 6 18 12 23 12 10 0 62 35 87 58 7 6 17 12 21 12 4 0 34 26
67 57 l59 58 3 -30 c2 -17 8 -34 13 -40 5 -5 9 -22 9 -38 0 -25 3 -27 23 -21
12 4 33 8 47 8 20 1 26 -4 28 -26 2 -16 8 -28 13 -28 5 0 9 -13 9 -29 0 -17 4
-32 9 -36 6 -3 13 -26 17 -50 3 -25 10 -48 15 -51 5 -3 9 -14 9 -25 0 -10 4
-27 9 -37 13 -24 41 -117 41 -136 0 -9 5 -16 10 -16 6 0 10 -11 10 -25 0 -14
7 -42 15 -62 8 -19 15 -46 15 -59 0 -13 4 -24 8 -24 14 0 32 48 32 83 0 18 5
52 11 77 6 25 15 72 20 105 6 33 14 83 19 110 29 164 42 245 46 285 3 25 7 51
9 58 3 9 49 12 186 12 l181 0 -5 -37z m1217 -15 c-3 -29 -9 -62 -14 -73 -5
-11 -11 -40 -14 -65 -3 -25 -9 -63 -13 -85 l-8 -40 -138 -3 -137 -3 0 36 0 35
-180 0 c-172 0 -180 -1 -180 -19 0 -11 -4 -23 -10 -26 -5 -3 -10 -18 -10 -32
0 -14 -7 -62 -16 -106 -14 -67 -14 -81 -3 -88 8 -5 100 -9 205 -9 105 0 193
-2 196 -5 3 -3 1 -25 -4 -48 -5 -23 -12 -69 -16 -102 -10 -86 -24 -91 -251
-93 -97 -1 -179 -2 -182 -2 -4 0 -9 -17 -13 -37 -3 -21 -10 -65 -16 -98 -6
-33 -13 -77 -16 -98 l-6 -37 183 2 184 3 9 32 c8 27 15 32 50 37 59 8 168 7
201 -3 28 -7 29 -10 26 -56 -1 -26 -6 -55 -11 -64 -4 -9 -13 -52 -20 -96 -7
-51 -17 -85 -28 -92 -12 -10 -129 -13 -505 -13 l-490 0 7 71 c4 39 12 83 17
96 5 13 9 38 9 54 0 28 2 29 45 29 36 0 45 4 46 18 0 16 8 62 29 177 5 28 16
93 25 145 9 52 21 118 25 145 14 78 26 143 40 227 8 43 11 80 8 83 -3 3 -19 7
-34 8 -26 2 -29 6 -27 37 1 36 17 135 29 183 l6 27 504 0 503 0 -5 -52z"/>
<path d="M5310 5923 c-30 -2 -59 -8 -64 -14 -6 -5 -20 -9 -32 -9 -12 0 -35 -7
-50 -15 -16 -8 -37 -15 -46 -15 -10 0 -18 -3 -18 -8 0 -4 -17 -15 -38 -24 -21
-9 -60 -37 -88 -63 -47 -44 -48 -45 -14 -29 19 9 37 20 40 23 3 4 25 15 50 26
25 11 47 22 50 26 3 3 16 9 30 12 14 3 43 10 65 16 66 17 280 14 368 -6 42 -9
77 -21 77 -25 0 -4 9 -8 21 -8 23 0 192 -79 197 -92 2 -4 9 -8 16 -8 7 0 34
-18 60 -41 38 -33 46 -47 46 -75 0 -26 -4 -34 -18 -34 -10 0 -22 4 -28 8 -5 5
-36 17 -69 28 -33 10 -62 21 -65 24 -3 3 -25 15 -50 27 -25 13 -69 36 -99 53
-30 16 -62 30 -72 30 -9 0 -19 3 -21 8 -6 14 -137 42 -200 42 -82 -1 -139 -14
-218 -52 -67 -33 -78 -41 -158 -119 -66 -65 -103 -120 -154 -231 -20 -44 -8
-50 25 -12 25 29 78 54 115 54 14 0 41 5 59 12 27 10 38 10 53 0 11 -7 32 -12
47 -12 35 0 113 -29 137 -52 11 -10 23 -18 28 -18 4 0 24 -17 43 -37 34 -36
34 -37 14 -51 -11 -8 -34 -12 -50 -10 -42 6 -37 -18 9 -38 20 -9 48 -21 61
-28 14 -6 78 -11 160 -11 161 0 236 20 365 97 44 27 82 48 86 48 13 0 140 125
140 138 0 6 3 12 8 12 9 0 42 74 42 94 0 8 5 18 10 21 6 3 10 19 10 34 0 15 5
32 11 38 6 6 9 21 7 34 -3 21 -11 25 -58 33 -30 4 -57 11 -60 15 -3 3 -30 15
-60 25 -30 11 -57 22 -60 26 -3 3 -23 14 -45 24 -22 9 -48 21 -57 26 -10 6
-26 10 -36 10 -10 0 -22 3 -25 6 -12 13 -112 43 -140 44 -16 0 -36 4 -46 9
-20 11 -231 21 -311 14z m125 -353 c3 -5 15 -10 25 -10 11 0 41 -12 67 -27 26
-15 57 -32 68 -38 87 -47 87 -75 -1 -75 -29 0 -34 -3 -34 -24 0 -42 56 -76
124 -76 31 0 64 4 74 9 51 25 88 45 92 51 3 3 15 1 28 -5 21 -11 18 -14 -45
-46 -64 -33 -72 -34 -177 -34 -101 0 -116 2 -166 28 -82 41 -87 45 -183 139
-114 111 -112 118 22 118 56 0 103 -4 106 -10z"/>
<path d="M2410 1967 c0 -12 -7 -54 -15 -92 -8 -39 -15 -89 -15 -112 0 -24 -4
-43 -9 -43 -5 0 -11 -24 -15 -52 -15 -127 -32 -227 -38 -234 -5 -4 -8 -25 -8
-46 0 -22 -4 -47 -9 -56 -4 -9 -11 -45 -15 -79 l-7 -63 184 0 185 0 5 38 c8
47 22 133 42 247 30 166 34 190 50 285 9 52 20 118 24 145 5 28 11 58 16 68 7
16 -6 17 -184 17 l-191 0 0 -23z"/>
<path d="M3543 1938 c-7 -29 -15 -80 -19 -113 -3 -33 -9 -69 -14 -80 -5 -11
-11 -38 -14 -60 -2 -22 -12 -80 -21 -130 -8 -49 -20 -115 -25 -145 -23 -138
-28 -167 -35 -192 l-7 -28 225 0 c259 0 230 -14 253 125 27 160 32 189 49 285
9 52 21 118 25 145 5 28 13 75 19 105 5 30 12 74 16 98 l8 42 -224 0 -224 0
-12 -52z"/>
<path d="M4777 1897 c-10 -51 -17 -107 -17 -123 0 -17 -5 -35 -11 -41 -20 -20
25 -24 241 -21 l205 3 8 40 c11 54 24 130 33 188 l7 47 -225 0 -225 0 -16 -93z"/>
</g>
</svg>
